<?xml version="1.0" standalone="no"?>
<!DOCTYPE svg PUBLIC "-//W3C//DTD SVG 20010904//EN"
 "http://www.w3.org/TR/2001/REC-SVG-20010904/DTD/svg10.dtd">
<svg version="1.0" xmlns="http://www.w3.org/2000/svg"
 width="128.000000pt" height="192.000000pt" viewBox="0 0 128.000000 192.000000"
 preserveAspectRatio="xMidYMid meet">

<g transform="translate(0.000000,192.000000) scale(0.100000,-0.100000)"
fill="#000000" stroke="none">
<path d="M286 856 c-15 -14 -26 -36 -26 -49 0 -28 38 -67 67 -67 34 0 66 33
66 69 0 62 -65 90 -107 47z m41 -22 c3 -8 -1 -22 -9 -30 -12 -12 -17 -12 -33
0 -16 12 -17 16 -6 30 17 20 40 21 48 0z"/>
<path d="M807 838 c-27 -22 -31 -61 -7 -91 29 -36 71 -36 99 -1 25 32 26 52 5
82 -17 25 -69 30 -97 10z m38 -38 c0 -29 -32 -41 -41 -16 -9 24 4 48 23 44 12
-2 18 -12 18 -28z"/>
<path d="M487 713 c-13 -13 -7 -23 26 -43 42 -26 107 -26 138 -1 33 27 20 34
-26 15 -43 -18 -80 -12 -111 17 -11 10 -24 16 -27 12z"/>
</g>
</svg>
